<?xml version="1.0" encoding="utf-8"?>
<svg viewBox="0 0 500 500" xmlns="http://www.w3.org/2000/svg">
  <defs>
    <radialGradient gradientUnits="userSpaceOnUse" cx="250.358" cy="368.779" r="237.199" id="gradient-2" gradientTransform="matrix(0.646307, 0, 0, 0.646307, 100.792053, 98.770981)">
      <stop offset="0" style="stop-color: rgba(255, 255, 255, 1)"/>
      <stop offset="1" style="stop-color: rgba(204, 204, 204, 1)"/>
    </radialGradient>
    <radialGradient gradientUnits="userSpaceOnUse" cx="250.399" cy="131.779" r="237.199" id="gradient-0" gradientTransform="matrix(0.646307, 0, 0, 0.646307, 100.791756, 98.771271)">
      <stop offset="0" style="stop-color: rgba(224, 26, 26, 1)"/>
      <stop offset="1" style="stop-color: rgba(133, 15, 15, 1)"/>
    </radialGradient>
    <radialGradient gradientUnits="userSpaceOnUse" cx="250.358" cy="368.779" r="237.199" id="gradient-4" gradientTransform="matrix(0.646307, 0, 0, 0.646307, 100.792053, 98.770981)">
      <stop offset="0" style="stop-color: rgba(255, 255, 255, 1)"/>
      <stop offset="1" style="stop-color: rgba(204, 204, 204, 1)"/>
    </radialGradient>
    <radialGradient gradientUnits="userSpaceOnUse" cx="250.399" cy="131.779" r="237.199" id="gradient-5" gradientTransform="matrix(0.646307, 0, 0, 0.646307, 100.791756, 98.771271)">
      <stop offset="0" style="stop-color: rgba(224, 26, 26, 1)"/>
      <stop offset="1" style="stop-color: rgba(133, 15, 15, 1)"/>
    </radialGradient>
  </defs>
  <g transform="matrix(0.551767, 0.318563, -0.318563, 0.551767, 86.335403, 106.375053)" style="">
    <path d="M 415.904 260.348 C 415.904 345.143 347.164 413.883 262.369 413.883 C 177.574 413.883 109.297 345.143 109.297 260.348 L 415.904 260.348 Z" style="stroke: rgb(0, 0, 0); fill: url(#gradient-2); stroke-width: 29px;"/>
    <path d="M 415.93 107.173 C 415.93 191.968 347.19 260.708 262.395 260.708 C 177.6 260.708 109.323 191.968 109.323 107.173 L 415.93 107.173 Z" style="stroke: rgb(0, 0, 0); fill: url(#gradient-0); stroke-width: 29px;" transform="matrix(-1, 0, 0, -1, 525.253056, 367.880984)"/>
    <ellipse style="stroke: rgb(0, 0, 0); fill: rgb(255, 255, 255); stroke-width: 29px;" cx="262.369" cy="260.348" rx="39.425" ry="39.425"/>
    <path d="M 227.767 33.454 L 298.567 33.454 L 317.567 107.896 L 208.767 107.896 L 227.767 33.454 Z" style=""/>
    <path d="M 362.744 89.535 L 433.544 89.535 L 452.544 163.977 L 343.744 163.977 L 362.744 89.535 Z" style="" transform="matrix(0.707107, 0.707107, -0.707107, 0.707107, 206.243715, -244.404346)"/>
    <path d="M 417.961 224.102 L 488.761 224.102 L 507.761 298.545 L 398.96 298.545 L 417.961 224.102 Z" style="" transform="matrix(0, 1, -1, 0, 714.684023, -192.036999)"/>
    <path d="M 361.646 357.572 L 432.446 357.572 L 451.446 432.015 L 342.645 432.015 L 361.646 357.572 Z" style="" transform="matrix(-0.707107, 0.707107, -0.707107, -0.707107, 956.960178, 393.201115)"/>
    <path d="M 227.358 414.705 L 298.158 414.705 L 317.158 489.148 L 208.357 489.148 L 227.358 414.705 Z" style="" transform="matrix(-1, 0, 0, -1, 525.515005, 903.853041)"/>
    <path d="M 91.393 89.78 L 162.193 89.78 L 181.193 164.223 L 72.392 164.223 L 91.393 89.78 Z" style="" transform="matrix(0.707107, -0.707107, 0.707107, 0.707107, -52.66696, 126.853712)"/>
    <path d="M 36.494 223.595 L 107.294 223.595 L 126.294 298.038 L 17.493 298.038 L 36.494 223.595 Z" style="" transform="matrix(0, -1, 1, 0, -188.923039, 332.709969)"/>
    <path d="M 94.075 358.805 L 164.875 358.805 L 183.875 433.248 L 75.074 433.248 L 94.075 358.805 Z" style="" transform="matrix(-0.707107, -0.707107, 0.707107, -0.707107, -59.00625, 767.611782)"/>
  </g>
  <g transform="matrix(0.450516, -0.450516, 0.450516, 0.450516, 116.671791, 157.416321)" style="">
    <path d="M 415.904 260.348 C 415.904 345.143 347.164 413.883 262.369 413.883 C 177.574 413.883 109.297 345.143 109.297 260.348 L 415.904 260.348 Z" style="stroke: rgb(0, 0, 0); stroke-width: 29px; fill: url(#gradient-4);"/>
    <path d="M 415.93 107.173 C 415.93 191.968 347.19 260.708 262.395 260.708 C 177.6 260.708 109.323 191.968 109.323 107.173 L 415.93 107.173 Z" style="stroke: rgb(0, 0, 0); stroke-width: 29px; fill: url(#gradient-5);" transform="matrix(-1, 0, 0, -1, 525.253056, 367.880984)"/>
    <ellipse style="stroke: rgb(0, 0, 0); fill: rgb(255, 255, 255); stroke-width: 29px;" cx="262.369" cy="260.348" rx="39.425" ry="39.425"/>
    <path d="M 227.767 33.454 L 298.567 33.454 L 317.567 107.896 L 208.767 107.896 L 227.767 33.454 Z" style=""/>
    <path d="M 362.744 89.535 L 433.544 89.535 L 452.544 163.977 L 343.744 163.977 L 362.744 89.535 Z" style="" transform="matrix(0.707107, 0.707107, -0.707107, 0.707107, 206.243715, -244.404346)"/>
    <path d="M 417.961 224.102 L 488.761 224.102 L 507.761 298.545 L 398.96 298.545 L 417.961 224.102 Z" style="" transform="matrix(0, 1, -1, 0, 714.684023, -192.036999)"/>
    <path d="M 361.646 357.572 L 432.446 357.572 L 451.446 432.015 L 342.645 432.015 L 361.646 357.572 Z" style="" transform="matrix(-0.707107, 0.707107, -0.707107, -0.707107, 956.960178, 393.201115)"/>
    <path d="M 227.358 414.705 L 298.158 414.705 L 317.158 489.148 L 208.357 489.148 L 227.358 414.705 Z" style="" transform="matrix(-1, 0, 0, -1, 525.515005, 903.853041)"/>
    <path d="M 91.393 89.78 L 162.193 89.78 L 181.193 164.223 L 72.392 164.223 L 91.393 89.78 Z" style="" transform="matrix(0.707107, -0.707107, 0.707107, 0.707107, -52.66696, 126.853712)"/>
    <path d="M 36.494 223.595 L 107.294 223.595 L 126.294 298.038 L 17.493 298.038 L 36.494 223.595 Z" style="" transform="matrix(0, -1, 1, 0, -188.923039, 332.709969)"/>
    <path d="M 94.075 358.805 L 164.875 358.805 L 183.875 433.248 L 75.074 433.248 L 94.075 358.805 Z" style="" transform="matrix(-0.707107, -0.707107, 0.707107, -0.707107, -59.00625, 767.611782)"/>
  </g>
</svg>